# xmcd
#
# Track frame offsets:
#	150
#	21006
#	35791
#	55979
#	71179
#	87333
#	103916
#	122870
#	135447
#	152181
#	174442
#	193264
#
# Disc length: 2792 seconds
#
# Revision: 0
# Processed by: cddbd v1.5.2PL0 Copyright (c) Steve Scherf et al.
# Submitted via: dBpowerAMP V4.0
#
DISCID=af0ae60c
DTITLE=Rihanna - Good Girl Gone Bad
DYEAR=2007
DGENRE=
TTITLE0=Umbrella (Feat. Jay-Z)
TTITLE1=Push Up on Me
TTITLE2=Don't Stop the Music
TTITLE3=Breakin' Dishes
TTITLE4=Shut Up and Drive
TTITLE5=Hate that I Love You (Feat. Ne-Yo)
TTITLE6=Say it
TTITLE7=Sell Me Candy
TTITLE8=Lemme Get that
TTITLE9=Rehab
TTITLE10=Question Existing
TTITLE11=Good Girl Gone Bad
EXTD=
EXTT0=
EXTT1=
EXTT2=
EXTT3=
EXTT4=
EXTT5=
EXTT6=
EXTT7=
EXTT8=
EXTT9=
EXTT10=
EXTT11=
PLAYORDER=
